<svg width="570" height="380" viewBox="0 0 570 380" fill="none" xmlns="http://www.w3.org/2000/svg">
<path d="M506.882 114.205L499.609 149.431L494.927 144.864L486.962 150.549L480.875 142.987L467.225 152.912L455.559 133.403L442.548 141.026L437.388 133.912L420.865 143.222L415.895 132.575L427.477 76.479L489.569 89.3002L506.882 114.205Z" fill="#EBEBEB"/>
<path d="M489.569 89.3003L506.882 114.205L485.344 109.759L489.569 89.3003Z" fill="#DBDBDB"/>
<path d="M498.058 156.469L487.396 208.149L403.758 190.882L414.344 139.62L419.315 150.26L435.845 140.95L440.998 148.063L454.016 140.448L465.675 159.957L479.332 150.032L485.412 157.586L493.384 151.909L498.058 156.469Z" fill="#EBEBEB"/>
<path d="M378.351 150.412L293.117 155.686L286.345 46.2766L349.638 42.355L372.871 61.849L378.351 150.412Z" fill="#EBEBEB"/>
<path d="M349.638 42.355L372.871 61.849L350.922 63.2094L349.638 42.355Z" fill="#DBDBDB"/>
<path d="M326.04 115.976L325.706 113.506C324.847 108.391 326.245 102.669 330.691 96.6874C334.704 91.3674 336.878 87.5674 336.634 83.2506C336.361 78.3866 333.131 75.3162 327.119 75.5594C323.684 75.7379 320.383 76.9572 317.657 79.0554L315.035 73.1806C318.075 70.7106 323.395 68.8866 328.449 68.6206C339.416 68.0126 344.751 74.503 345.169 81.7458C345.534 88.2286 342.175 93.1002 337.904 98.7926C333.982 103.983 332.698 108.262 333.252 113.103L333.488 115.581L326.04 115.976ZM324.687 129.436C324.49 125.909 326.732 123.295 330.068 123.113C333.404 122.93 335.836 125.271 336.034 128.805C336.216 132.141 334.172 134.832 330.646 135.029C327.279 135.219 324.847 132.772 324.657 129.436H324.687Z" fill="#DBDBDB"/>
<path d="M112.845 97.3636L104.272 93.48L103.079 96.102C102.903 96.4767 102.628 96.7963 102.284 97.0266C101.939 97.2569 101.539 97.3892 101.126 97.4092C100.654 97.4246 100.185 97.4703 99.7196 97.546C99.3112 97.6066 98.894 97.5552 98.5125 97.3973C98.131 97.2393 97.7996 96.9808 97.5536 96.6492L95.874 94.3008L88.2208 99.788L89.9004 102.136C90.134 102.475 90.2715 102.871 90.2982 103.282C90.325 103.693 90.24 104.103 90.0524 104.47C89.8357 104.888 89.6404 105.316 89.4672 105.754C89.3166 106.14 89.0637 106.478 88.7357 106.731C88.4076 106.984 88.0168 107.143 87.6052 107.19L84.74 107.472L85.6596 116.842L88.54 116.554C88.9531 116.521 89.3673 116.601 89.7383 116.786C90.1092 116.97 90.4227 117.253 90.6452 117.602C90.7668 117.8 90.896 117.99 91.0328 118.18C91.1696 118.37 91.3064 118.552 91.4508 118.735C91.7131 119.054 91.8817 119.439 91.9381 119.849C91.9944 120.258 91.9362 120.675 91.77 121.053L90.5692 123.698L99.1496 127.589L100.343 124.952C100.521 124.577 100.797 124.258 101.143 124.029C101.488 123.8 101.889 123.67 102.304 123.652C102.769 123.633 103.234 123.587 103.694 123.515C104.103 123.455 104.52 123.506 104.901 123.664C105.283 123.822 105.614 124.08 105.86 124.412L107.54 126.76L115.201 121.273L113.521 118.925C113.28 118.589 113.139 118.192 113.112 117.78C113.085 117.368 113.174 116.956 113.369 116.592C113.581 116.176 113.771 115.75 113.939 115.315C114.085 114.926 114.337 114.586 114.666 114.332C114.995 114.078 115.388 113.921 115.801 113.878L118.682 113.59L117.754 104.219L114.874 104.5C114.463 104.536 114.051 104.458 113.682 104.274C113.313 104.09 113.002 103.808 112.784 103.459C112.655 103.261 112.526 103.071 112.389 102.881C112.252 102.691 112.115 102.501 111.971 102.326C111.71 102.003 111.543 101.615 111.487 101.204C111.43 100.793 111.487 100.374 111.652 99.9932L112.845 97.3636ZM107.981 106.035C108.87 107.275 109.371 108.751 109.42 110.276C109.47 111.801 109.067 113.307 108.261 114.602C107.455 115.898 106.283 116.926 104.893 117.555C103.504 118.185 101.958 118.388 100.453 118.139C98.9474 117.89 97.5496 117.201 96.4362 116.158C95.3228 115.114 94.5438 113.764 94.1976 112.278C93.8515 110.792 93.9538 109.237 94.4917 107.809C95.0295 106.381 95.9787 105.145 97.2192 104.257C98.8822 103.066 100.95 102.584 102.968 102.918C104.986 103.251 106.789 104.373 107.981 106.035Z" fill="#EBEBEB"/>
<path d="M500.369 221.7L494.654 224.998L495.664 226.746C495.815 226.997 495.89 227.286 495.881 227.579C495.872 227.871 495.778 228.155 495.611 228.395C495.436 228.669 495.269 228.95 495.117 229.247C494.992 229.509 494.795 229.73 494.548 229.883C494.302 230.037 494.017 230.116 493.726 230.113H491.72V236.717H493.742C494.032 236.714 494.317 236.794 494.564 236.947C494.81 237.101 495.008 237.322 495.132 237.584C495.284 237.88 495.452 238.161 495.626 238.435C495.793 238.676 495.887 238.959 495.896 239.252C495.906 239.544 495.83 239.833 495.68 240.084L494.669 241.832L500.384 245.131L501.402 243.375C501.55 243.126 501.764 242.923 502.02 242.789C502.277 242.654 502.565 242.594 502.854 242.615H503.827C504.115 242.595 504.404 242.656 504.66 242.79C504.916 242.924 505.13 243.127 505.278 243.375L506.297 245.138L512.004 241.84L510.994 240.084C510.85 239.832 510.779 239.545 510.79 239.255C510.801 238.965 510.892 238.683 511.054 238.443C511.229 238.169 511.396 237.88 511.548 237.591C511.673 237.329 511.871 237.108 512.117 236.955C512.364 236.801 512.649 236.721 512.939 236.725H514.961V230.121H512.924C512.634 230.124 512.348 230.044 512.102 229.891C511.855 229.737 511.658 229.516 511.533 229.254C511.381 228.965 511.214 228.677 511.039 228.403C510.877 228.162 510.786 227.881 510.775 227.591C510.764 227.301 510.835 227.013 510.978 226.761L511.989 225.006L506.282 221.707L505.263 223.44C505.116 223.689 504.902 223.892 504.645 224.026C504.389 224.161 504.1 224.221 503.812 224.2H503.325H502.839C502.549 224.22 502.26 224.159 502.003 224.025C501.745 223.891 501.53 223.689 501.38 223.44L500.369 221.7ZM503.325 228.008C504.396 228.006 505.443 228.322 506.334 228.917C507.225 229.511 507.92 230.356 508.331 231.345C508.741 232.334 508.849 233.422 508.64 234.473C508.432 235.523 507.916 236.488 507.159 237.245C506.402 238.002 505.437 238.518 504.387 238.727C503.336 238.935 502.248 238.827 501.258 238.417C500.269 238.006 499.424 237.311 498.83 236.42C498.236 235.529 497.92 234.482 497.922 233.411C497.921 232.701 498.06 231.998 498.331 231.341C498.602 230.685 499 230.088 499.502 229.585C500.003 229.083 500.599 228.684 501.256 228.412C501.912 228.14 502.615 228 503.325 228V228.008Z" fill="#EBEBEB"/>
<path d="M130.188 69.2816L124.951 73.2944L126.16 74.898C126.34 75.1265 126.451 75.4019 126.479 75.6916C126.507 75.9812 126.452 76.2729 126.319 76.532C126.174 76.8278 126.047 77.1324 125.939 77.444C125.846 77.7185 125.677 77.9613 125.453 78.1453C125.229 78.3292 124.958 78.447 124.67 78.4852L122.664 78.7436L123.515 85.2872L125.521 85.0288C125.813 84.9881 126.111 85.0307 126.38 85.1517C126.649 85.2727 126.878 85.4672 127.041 85.7128C127.224 85.9772 127.422 86.2309 127.634 86.4728C127.83 86.6881 127.96 86.9551 128.008 87.2421C128.057 87.529 128.022 87.8239 127.908 88.0916L127.148 89.9612L133.228 92.492L133.988 90.6224C134.101 90.3542 134.287 90.123 134.525 89.9551C134.762 89.7872 135.042 89.6893 135.333 89.6724L135.819 89.6192L136.298 89.5432C136.579 89.4902 136.87 89.5153 137.138 89.6158C137.406 89.7163 137.641 89.8883 137.818 90.1132L139.057 91.732L144.293 87.7192L143.07 86.1156C142.893 85.8839 142.785 85.6075 142.756 85.3175C142.728 85.0275 142.781 84.7353 142.91 84.474C143.054 84.1801 143.181 83.8781 143.29 83.5696C143.384 83.2951 143.552 83.0522 143.777 82.8682C144.001 82.6843 144.272 82.5666 144.559 82.5284L146.566 82.27L145.715 75.7264L143.708 75.9848C143.417 76.0263 143.12 75.9848 142.851 75.8652C142.582 75.7455 142.352 75.5526 142.188 75.3084C141.998 75.0348 141.801 74.7764 141.588 74.5484C141.411 74.3284 141.296 74.0649 141.256 73.7854C141.216 73.506 141.252 73.2208 141.36 72.96L142.12 71.0904L136.04 68.5596L135.28 70.4292C135.165 70.6963 134.979 70.9266 134.741 71.0943C134.504 71.2619 134.225 71.3606 133.935 71.3792L133.448 71.4248L133 71.44C132.719 71.493 132.428 71.4679 132.16 71.3674C131.892 71.2669 131.657 71.0948 131.48 70.87L130.188 69.2816ZM133.935 75.1564C134.993 75.0203 136.069 75.2008 137.025 75.6751C137.981 76.1494 138.775 76.8963 139.307 77.8215C139.84 78.7467 140.086 79.8088 140.015 80.8738C139.945 81.9389 139.56 82.9591 138.91 83.8058C138.26 84.6526 137.374 85.2879 136.364 85.6316C135.353 85.9753 134.264 86.0121 133.232 85.7373C132.201 85.4624 131.274 84.8883 130.568 84.0872C129.863 83.2862 129.411 82.2942 129.268 81.2364C129.173 80.5304 129.219 79.8127 129.402 79.1244C129.586 78.4362 129.903 77.791 130.337 77.2259C130.771 76.6609 131.312 76.1871 131.929 75.832C132.547 75.4768 133.228 75.2472 133.935 75.1564Z" fill="#EBEBEB"/>
<path d="M91.0632 240.753C91.3487 233.406 91.2472 226.049 90.7592 218.713C89.6718 203.564 87.3615 188.528 83.8508 173.751C81.9204 165.437 79.5492 157.259 77.0716 149.089C76.9956 148.839 76.6004 148.907 76.6688 149.165C84.322 177.969 90.5996 207.685 90.1664 237.629C90.0448 245.989 89.072 254.235 88.2816 262.565C88.2816 262.785 88.6236 262.877 88.6768 262.649C90.25 255.497 90.7668 248.034 91.0632 240.753Z" fill="#EBEBEB"/>
<path d="M76.6686 149.143C76.6686 149.143 65.0862 178.555 67.6778 185.44C70.2694 192.326 75.6198 193.8 75.6198 193.8C75.6198 193.8 68.529 203.923 73.4842 213.416C78.4394 222.908 89.4442 222.46 90.2042 233.221C90.1814 233.275 90.7894 188.275 76.6686 149.143Z" fill="#EBEBEB"/>
<path d="M88.9198 214.693C88.9385 214.644 88.9385 214.59 88.9198 214.541C87.3996 194.461 83.6318 174.615 77.687 155.375C77.687 155.322 77.573 155.337 77.5882 155.375C79.8834 163.988 81.9101 172.637 83.6682 181.321C82.1111 179.846 80.2087 178.785 78.1354 178.236C78.1354 178.236 78.0746 178.281 78.1354 178.296C80.3135 179.095 82.2719 180.397 83.8506 182.096C84.185 183.806 84.5194 185.509 84.831 187.219C82.2394 184.323 78.6522 182.887 75.0574 181.519C75.0493 181.522 75.0423 181.528 75.0375 181.536C75.0326 181.543 75.03 181.552 75.03 181.561C75.03 181.569 75.0326 181.578 75.0375 181.586C75.0423 181.593 75.0493 181.599 75.0574 181.602C78.8042 183.122 82.5282 185.083 85.0666 188.313C85.9482 193.192 86.7234 198.089 87.3922 203.004C85.521 201.044 83.1212 199.668 80.4838 199.044C80.4002 199.044 80.3546 199.143 80.4382 199.166C83.1474 199.964 85.5662 201.532 87.3998 203.68H87.4454C87.6734 205.403 87.8913 207.133 88.099 208.871C86.6514 207.646 85.017 206.661 83.2578 205.953C83.2122 205.953 83.1818 206.006 83.2578 206.021C85.053 206.799 86.697 207.887 88.1142 209.236C88.1142 209.236 88.1522 209.236 88.175 209.236C88.365 210.885 88.555 212.534 88.7222 214.184C86.1125 211.029 82.7256 208.608 78.8954 207.161C78.8793 207.161 78.8638 207.168 78.8524 207.179C78.841 207.19 78.8346 207.206 78.8346 207.222C78.8346 207.238 78.841 207.254 78.8524 207.265C78.8638 207.276 78.8793 207.283 78.8954 207.283C82.6775 208.95 85.9996 211.508 88.5778 214.738C88.6062 214.774 88.6445 214.8 88.6878 214.813C88.7311 214.827 88.7775 214.827 88.821 214.814C89.0718 217.345 89.2998 219.876 89.4822 222.414C89.4822 222.452 89.543 222.452 89.543 222.414C89.3454 219.866 89.1377 217.292 88.9198 214.693Z" fill="white"/>
<path d="M79.61 175.34C77.5124 174.034 75.1161 173.286 72.6484 173.166C72.6363 173.166 72.6247 173.171 72.6161 173.179C72.6076 173.188 72.6028 173.2 72.6028 173.212C72.6028 173.224 72.6076 173.235 72.6161 173.244C72.6247 173.252 72.6363 173.257 72.6484 173.257C75.0342 173.71 77.3496 174.476 79.534 175.537C79.6252 175.56 79.6936 175.4 79.61 175.34Z" fill="white"/>
<path d="M81.0158 206.477C79.4036 205.552 77.6284 204.945 75.787 204.691C75.7262 204.691 75.7186 204.775 75.787 204.79C77.5851 205.15 79.3244 205.759 80.955 206.599C81.0234 206.637 81.0842 206.515 81.0158 206.477Z" fill="white"/>
<path d="M121.524 185.949C116.624 189.336 112.124 193.268 108.11 197.669C103.97 202.328 100.777 207.749 98.7086 213.629C94.3066 225.878 91.9395 238.766 91.7014 251.781C91.5537 258.988 92.2449 266.188 93.761 273.235C93.7733 273.287 93.8048 273.331 93.849 273.36C93.8933 273.388 93.9468 273.399 93.9986 273.389C94.0503 273.379 94.0964 273.35 94.1271 273.307C94.1579 273.264 94.171 273.212 94.1638 273.159C92.2773 260.723 92.3491 248.068 94.3766 235.653C96.3678 223.493 99.4914 210.254 107.228 200.367C111.439 194.978 116.69 190.745 121.881 186.367C122.155 186.124 121.805 185.752 121.524 185.949Z" fill="#EBEBEB"/>
<path d="M93.4038 243.01C96.1929 238.499 99.4705 234.309 103.177 230.516C108.976 224.717 113.855 220.598 114.615 216.767C115.375 212.937 108.809 210.11 108.809 210.11C108.809 210.11 116.827 211.554 119.023 208.187C121.22 204.82 122.276 185.318 122.276 185.318C122.276 185.318 107.684 195.738 100.882 210.345C94.0802 224.952 93.4038 243.01 93.4038 243.01Z" fill="#EBEBEB"/>
<path d="M117.04 203.612C116.079 203.469 115.105 203.435 114.137 203.513C114.023 203.513 114.03 203.71 114.137 203.718C115.094 203.718 116.059 203.672 117.017 203.718C117.028 203.715 117.038 203.709 117.046 203.701C117.054 203.693 117.059 203.683 117.061 203.672C117.064 203.661 117.063 203.649 117.059 203.639C117.055 203.628 117.049 203.619 117.04 203.612Z" fill="white"/>
<path d="M106.56 222.528C105.019 222.56 103.495 222.863 102.06 223.425C102.06 223.425 102.06 223.501 102.06 223.494C103.58 223.136 105.047 222.992 106.552 222.734C106.572 222.725 106.588 222.711 106.6 222.693C106.613 222.676 106.619 222.655 106.62 222.633C106.621 222.612 106.616 222.591 106.605 222.572C106.594 222.554 106.578 222.538 106.56 222.528Z" fill="white"/>
<path d="M103.413 215.992C102.773 215.987 102.135 216.043 101.505 216.159C101.494 216.164 101.484 216.171 101.477 216.181C101.47 216.192 101.466 216.204 101.466 216.216C101.466 216.229 101.47 216.241 101.477 216.251C101.484 216.261 101.494 216.269 101.505 216.273C102.143 216.31 102.782 216.282 103.413 216.19C103.439 216.19 103.464 216.179 103.483 216.161C103.501 216.142 103.512 216.117 103.512 216.091C103.512 216.065 103.501 216.039 103.483 216.021C103.464 216.002 103.439 215.992 103.413 215.992Z" fill="white"/>
<path d="M50.6235 206.636C55.3729 208.246 59.9241 210.391 64.1895 213.028C68.6153 215.84 72.4533 219.485 75.4907 223.759C81.8816 232.655 86.7747 242.536 89.9763 253.012C91.762 258.812 92.8638 264.801 93.2595 270.856C93.2512 270.896 93.2297 270.931 93.1986 270.956C93.1674 270.981 93.1286 270.995 93.0885 270.995C93.0485 270.995 93.0096 270.981 92.9785 270.956C92.9474 270.931 92.9258 270.896 92.9175 270.856C91.576 260.356 88.5961 250.132 84.0863 240.555C79.6555 231.169 74.0695 221.183 65.5271 214.966C60.8759 211.584 55.6471 209.365 50.4335 207.024C50.1599 206.933 50.3499 206.545 50.6235 206.636Z" fill="#EBEBEB"/>
<path d="M86.5715 246.316C83.2697 243.312 79.6481 240.679 75.7719 238.465C69.7375 235.114 64.8355 232.91 63.3383 229.984C61.8411 227.058 66.4999 223.258 66.4999 223.258C66.4999 223.258 60.3439 226.298 57.7903 224.056C55.2367 221.814 49.8711 206.31 49.8711 206.31C49.8711 206.31 64.0907 211.364 72.9599 221.616C81.8291 231.868 86.5715 246.316 86.5715 246.316Z" fill="#EBEBEB"/>
<path d="M74.7687 232.044C73.3706 231.946 71.9669 232.119 70.6343 232.553C70.6343 232.553 70.6343 232.621 70.6343 232.614C71.9938 232.38 73.3674 232.238 74.7459 232.188C74.8447 232.188 74.8675 232.051 74.7687 232.044Z" fill="white"/>
<path d="M62.3656 215.78C61.7278 215.727 61.086 215.763 60.458 215.886C60.3896 215.886 60.4124 216.008 60.458 216C61.0888 215.932 61.7044 215.954 62.3276 215.939C62.3469 215.94 62.3659 215.934 62.3814 215.922C62.3968 215.911 62.4077 215.894 62.4122 215.875C62.4167 215.856 62.4145 215.836 62.406 215.819C62.3975 215.801 62.3832 215.788 62.3656 215.78Z" fill="white"/>
<path d="M104.91 290.457H72.8154L77.3906 256.933L78.561 248.338H99.1646L100.335 256.933L104.91 290.457Z" fill="#DBDBDB"/>
<path d="M100.335 256.933H77.3906L78.561 248.338H99.1646L100.335 256.933Z" fill="#C7C7C7"/>
<path d="M102.106 245.358H75.6123V252.639H102.106V245.358Z" fill="#DBDBDB"/>
<path d="M52.4097 290.457L110.177 290.274L167.945 290.206L283.48 290.077L399.015 290.206L456.783 290.274L514.55 290.457L456.783 290.647L399.015 290.707L283.48 290.837L167.945 290.707L110.177 290.639L52.4097 290.457Z" fill="#263238"/>
<path d="M285 347.1C405.355 347.1 502.922 336.409 502.922 323.221C502.922 310.032 405.355 299.341 285 299.341C164.645 299.341 67.0776 310.032 67.0776 323.221C67.0776 336.409 164.645 347.1 285 347.1Z" fill="#EBEBEB"/>
<path d="M234.27 319.268C232.499 319.869 181.724 320.028 179.778 318.827C179.018 318.371 178.585 310.977 178.258 302.024C178.19 300.093 178.136 298.095 178.091 296.073L174.04 268.986L207.989 268.766L211.189 295.86L211.06 301.819C211.06 301.819 230.531 310.445 232.522 312.01C234.513 313.576 236.041 318.668 234.27 319.268Z" fill="#EB9481"/>
<path d="M234.27 319.268C232.499 319.869 181.723 320.028 179.778 318.828C178.881 318.265 178.395 307.466 178.121 296.073L211.151 295.86L211.021 301.819C211.021 301.819 230.493 310.445 232.484 312.01C234.475 313.576 236.041 318.668 234.27 319.268Z" fill="white"/>
<path d="M234.27 319.268C232.499 319.868 181.724 320.028 179.778 318.827C179.018 318.371 178.585 310.976 178.258 302.024L210.991 301.818C210.991 301.818 230.462 310.444 232.454 312.01C234.445 313.576 236.041 318.668 234.27 319.268Z" fill="#A6A6A6"/>
<path d="M233.533 317.239C225.021 317.056 190.669 317.14 182.24 317.611C182.172 317.611 182.172 317.657 182.24 317.664C190.676 318.022 225.028 317.664 233.533 317.376C233.715 317.368 233.715 317.239 233.533 317.239Z" fill="#263238"/>
<path d="M229.208 310.194C228.262 310.172 227.321 310.348 226.446 310.709C225.571 311.07 224.78 311.609 224.124 312.291C222.928 313.509 222.252 315.144 222.239 316.851C222.239 316.904 222.33 316.904 222.338 316.851C222.621 315.17 223.439 313.625 224.672 312.447C225.905 311.269 227.485 310.521 229.178 310.315C229.194 310.319 229.211 310.317 229.225 310.308C229.24 310.3 229.25 310.286 229.254 310.27C229.258 310.254 229.256 310.236 229.247 310.222C229.238 310.208 229.225 310.198 229.208 310.194Z" fill="#263238"/>
<path d="M214.32 302.655C210.915 302.617 206.971 303.833 204.858 306.629C204.782 306.736 204.934 306.85 205.033 306.797C208.007 305.226 211.141 303.978 214.381 303.073C214.431 303.059 214.474 303.027 214.503 302.984C214.531 302.941 214.543 302.888 214.535 302.837C214.528 302.785 214.502 302.739 214.462 302.705C214.422 302.671 214.372 302.654 214.32 302.655Z" fill="#263238"/>
<path d="M216.965 303.666C213.553 303.666 209.608 304.851 207.503 307.64C207.419 307.754 207.571 307.868 207.678 307.815C210.648 306.239 213.78 304.988 217.018 304.084C217.068 304.07 217.11 304.039 217.139 303.996C217.167 303.954 217.179 303.902 217.173 303.851C217.166 303.801 217.142 303.754 217.104 303.72C217.065 303.685 217.016 303.666 216.965 303.666Z" fill="#263238"/>
<path d="M219.594 304.684C216.19 304.684 212.245 305.862 210.132 308.658C210.056 308.765 210.208 308.879 210.307 308.826C213.282 307.255 216.416 306.007 219.655 305.102C219.705 305.088 219.749 305.056 219.777 305.013C219.805 304.969 219.817 304.917 219.81 304.866C219.802 304.814 219.776 304.767 219.736 304.734C219.697 304.7 219.646 304.683 219.594 304.684Z" fill="#263238"/>
<path d="M222.232 305.702C218.819 305.664 214.875 306.88 212.77 309.677C212.686 309.783 212.846 309.897 212.944 309.844C215.918 308.273 219.052 307.024 222.292 306.12C222.342 306.106 222.386 306.075 222.414 306.031C222.443 305.988 222.454 305.936 222.447 305.884C222.439 305.833 222.413 305.786 222.374 305.752C222.334 305.719 222.283 305.701 222.232 305.702Z" fill="#263238"/>
<path d="M184.384 309.518C180.584 309.518 180.584 315.484 184.384 315.461C188.184 315.438 188.214 309.495 184.384 309.518Z" fill="#263238"/>
<path d="M217.976 293.55C216.25 292.121 214.077 293.55 213.02 295.017C211.262 297.609 210.214 300.617 209.98 303.741C209.98 303.81 210.034 303.84 210.087 303.84C210.1 303.905 210.129 303.965 210.171 304.016C210.212 304.067 210.265 304.107 210.326 304.133C210.386 304.159 210.452 304.17 210.517 304.165C210.583 304.161 210.646 304.141 210.702 304.106C213.119 302.427 215.916 300.922 217.748 298.543C218.789 297.16 219.64 294.88 217.976 293.55ZM213.826 300.8C212.656 301.659 211.447 302.457 210.307 303.361C210.915 301.659 211.44 299.941 212.215 298.3C212.573 297.513 212.984 296.751 213.446 296.02C214.206 294.887 217.52 292.03 217.869 295.731C218.067 297.76 215.217 299.782 213.826 300.8Z" fill="#263238"/>
<path d="M201.499 305.033C204.463 305.474 207.526 304.623 210.436 304.159C210.5 304.143 210.558 304.112 210.607 304.069C210.656 304.026 210.694 303.971 210.719 303.911C210.743 303.85 210.753 303.785 210.748 303.72C210.742 303.655 210.721 303.592 210.687 303.536C210.698 303.528 210.707 303.517 210.713 303.504C210.72 303.492 210.723 303.478 210.723 303.464C210.723 303.45 210.72 303.436 210.713 303.424C210.707 303.411 210.698 303.4 210.687 303.392C208.348 301.306 205.502 299.872 202.434 299.235C200.64 298.893 198.102 299.387 197.874 301.613C197.6 303.711 199.766 304.76 201.499 305.033ZM199.432 303.103C197.152 300.185 201.506 299.934 202.814 300.238C203.662 300.45 204.495 300.719 205.306 301.043C206.969 301.733 208.595 302.506 210.178 303.361C208.734 303.506 207.313 303.764 205.876 303.962C204.159 304.19 200.708 304.707 199.432 303.103Z" fill="#263238"/>
<path d="M124.123 143.792C124.123 143.792 163.544 210.854 164.601 215.566C166.22 222.802 174.8 294.249 174.8 294.249L215.84 293.489C215.84 293.489 208.772 230.493 202.076 209.737C197.258 194.788 162.465 145.206 162.465 145.206L124.123 143.792Z" fill="#37474F"/>
<path d="M212.108 287.227C206.218 287.181 185.341 286.946 177.498 287.675C177.437 287.675 177.445 287.782 177.498 287.789C180.196 288.177 206.211 287.576 212.101 287.386C212.113 287.391 212.126 287.392 212.139 287.391C212.152 287.389 212.165 287.385 212.175 287.377C212.186 287.37 212.195 287.36 212.202 287.349C212.208 287.337 212.212 287.325 212.213 287.312C212.213 287.299 212.211 287.286 212.205 287.274C212.2 287.262 212.192 287.251 212.182 287.243C212.172 287.235 212.16 287.229 212.147 287.226C212.134 287.223 212.121 287.223 212.108 287.227Z" fill="#263238"/>
<path d="M130.849 149.948C133.433 153.999 136.169 157.966 138.799 161.986C141.429 166.007 144.073 170.027 146.68 174.04C151.879 182.147 156.945 190.306 161.88 198.519C164.289 202.327 166.349 206.343 168.036 210.52C169.576 214.698 170.734 219.007 171.494 223.394C172.3 227.795 172.832 232.241 173.326 236.687C173.832 241.414 174.362 246.144 174.914 250.876C175.993 260.558 177.075 270.241 178.159 279.923C178.289 281.109 178.418 282.294 178.539 283.488C178.539 283.662 178.243 283.693 178.22 283.488C177.012 273.874 176.008 264.222 174.914 254.608C174.367 249.809 173.822 245.014 173.28 240.221C172.771 235.759 172.285 231.291 171.593 226.86C170.958 222.486 169.993 218.167 168.705 213.94C167.286 209.563 165.384 205.357 163.035 201.4C158.285 193.199 153.254 185.143 148.223 177.08C143.192 169.016 138.024 160.884 132.719 152.919C132.065 151.939 131.404 150.959 130.72 149.993C130.667 149.94 130.804 149.872 130.849 149.948Z" fill="#263238"/>
<path d="M137.043 323.22C135.174 323.106 86.8832 303.544 85.5456 301.689C85.486 301.58 85.4596 301.456 85.4696 301.332C85.4696 299.668 88.8212 293.861 91.618 286.231C91.7928 285.744 93.0392 283.48 94.7644 280.432C99.56 272.08 107.92 257.693 107.92 257.693L139.483 270.233L124.374 292.843L122.026 298.315C122.026 298.315 136.838 313.629 138.084 315.795C139.331 317.961 138.905 323.326 137.043 323.22Z" fill="#EB9481"/>
<path d="M137.043 323.22C135.174 323.106 86.8832 303.544 85.5456 301.689C85.486 301.58 85.4596 301.456 85.4696 301.332C85.4696 299.668 88.8212 293.861 91.618 286.231C91.7928 285.745 93.0392 283.48 94.7644 280.432L124.404 292.843L122.056 298.315C122.056 298.315 136.868 313.629 138.115 315.795C139.361 317.961 138.905 323.327 137.043 323.22Z" fill="white"/>
<path d="M137.043 323.22C135.174 323.106 86.8833 303.544 85.5457 301.689C85.0289 300.983 87.1873 294.393 91.6257 286.231L122.026 298.323C122.026 298.323 136.838 313.621 138.092 315.803C139.346 317.984 138.905 323.327 137.043 323.22Z" fill="#A6A6A6"/>
<path d="M137.119 321.062C129.299 317.702 97.4244 304.889 89.4368 302.168C89.3684 302.168 89.3532 302.168 89.4368 302.214C97.1204 305.71 129.094 318.265 137.089 321.214C137.241 321.252 137.286 321.13 137.119 321.062Z" fill="#263238"/>
<path d="M135.751 312.907C134.884 312.526 133.947 312.329 133 312.329C132.053 312.329 131.116 312.526 130.249 312.907C128.69 313.589 127.454 314.847 126.798 316.418C126.798 316.464 126.867 316.502 126.89 316.456C127.785 314.999 129.13 313.871 130.72 313.242C132.311 312.613 134.063 312.517 135.713 312.968C135.726 312.964 135.737 312.956 135.744 312.945C135.751 312.933 135.754 312.92 135.751 312.907Z" fill="#263238"/>
<path d="M124.784 300.337C121.646 299.022 117.526 298.672 114.524 300.474C114.41 300.542 114.524 300.702 114.623 300.694C117.97 300.354 121.343 300.372 124.686 300.747C124.737 300.753 124.789 300.739 124.831 300.71C124.873 300.68 124.903 300.636 124.916 300.585C124.928 300.535 124.921 300.482 124.897 300.436C124.873 300.391 124.833 300.355 124.784 300.337Z" fill="#263238"/>
<path d="M126.844 302.267C123.705 300.952 119.586 300.603 116.584 302.404C116.47 302.472 116.584 302.632 116.683 302.624C120.029 302.281 123.403 302.299 126.745 302.677C126.797 302.683 126.848 302.67 126.891 302.64C126.933 302.61 126.963 302.566 126.975 302.516C126.987 302.465 126.981 302.412 126.956 302.367C126.932 302.321 126.892 302.285 126.844 302.267Z" fill="#263238"/>
<path d="M128.911 304.197C125.765 302.882 121.646 302.533 118.651 304.334C118.53 304.402 118.651 304.562 118.742 304.554C122.089 304.211 125.462 304.229 128.805 304.608C128.857 304.616 128.911 304.605 128.956 304.576C129.001 304.547 129.033 304.503 129.046 304.451C129.059 304.4 129.053 304.345 129.028 304.298C129.003 304.251 128.961 304.215 128.911 304.197Z" fill="#263238"/>
<path d="M130.971 306.128C127.824 304.813 123.713 304.464 120.711 306.257C120.589 306.333 120.711 306.493 120.802 306.485C124.148 306.142 127.522 306.16 130.864 306.538C130.917 306.547 130.971 306.536 131.015 306.507C131.06 306.478 131.092 306.433 131.106 306.382C131.119 306.33 131.113 306.276 131.088 306.229C131.063 306.182 131.021 306.146 130.971 306.128Z" fill="#263238"/>
<path d="M94.4527 295.465C90.9035 294.051 88.6995 299.576 92.2639 300.99C95.8283 302.404 98.0399 296.878 94.4527 295.465Z" fill="#263238"/>
<path d="M131.586 293.269C130.515 291.3 127.984 291.787 126.441 292.767C123.842 294.508 121.746 296.901 120.361 299.706C120.355 299.718 120.352 299.732 120.352 299.745C120.352 299.759 120.355 299.773 120.36 299.785C120.366 299.798 120.375 299.809 120.386 299.817C120.396 299.826 120.409 299.832 120.422 299.835C120.422 300.086 120.589 300.382 120.886 300.322C123.766 299.66 126.92 299.318 129.504 297.798C130.986 296.917 132.597 295.131 131.586 293.269ZM125.012 298.429C123.606 298.786 122.193 299.075 120.802 299.486C121.952 298.099 123.173 296.773 124.458 295.511C125.09 294.908 125.763 294.35 126.472 293.839C127.574 293.079 131.738 291.673 130.674 295.237C130.089 297.206 126.692 298.004 125.012 298.429Z" fill="#263238"/>
<path d="M112.001 297.73C114.585 299.25 117.739 299.607 120.612 300.276C120.908 300.344 121.106 300.048 121.083 299.789C121.097 299.788 121.111 299.783 121.123 299.774C121.134 299.766 121.144 299.755 121.15 299.742C121.156 299.729 121.159 299.715 121.158 299.7C121.157 299.686 121.152 299.672 121.144 299.66C119.762 296.85 117.665 294.452 115.064 292.706C113.544 291.718 110.998 291.224 109.919 293.185C108.84 295.146 110.489 296.841 112.001 297.73ZM110.816 295.161C109.759 291.597 113.916 293.01 115.018 293.778C115.726 294.29 116.396 294.851 117.025 295.457C118.307 296.722 119.525 298.051 120.673 299.44C119.282 299.029 117.868 298.733 116.462 298.376C114.76 297.92 111.393 297.16 110.816 295.161Z" fill="#263238"/>
<path d="M126.829 291.582L91.4963 277.316C91.4963 277.316 135.303 212.906 135.622 208.111C135.911 203.87 116.668 166.919 115.915 156.15C115.094 144.522 120.688 135.531 126.844 129.945L163.286 145.441C163.286 145.441 159.44 151.59 153.406 155.017C153.406 155.017 172.094 197.729 171.03 210.862C169.966 223.995 126.829 291.582 126.829 291.582Z" fill="#37474F"/>
<path d="M128.394 284.863C123.287 282.667 124.784 283.222 119.647 281.063C117.139 280.014 100.647 273.152 98.1083 272.582C98.0551 272.582 98.0171 272.658 98.0703 272.688C100.267 274.033 116.896 280.607 119.426 281.61C124.602 283.647 123.135 283.009 128.334 284.985C128.341 284.995 128.352 285.003 128.363 285.009C128.375 285.014 128.388 285.016 128.401 285.015C128.414 285.014 128.426 285.009 128.437 285.002C128.448 284.995 128.456 284.985 128.462 284.973C128.468 284.962 128.471 284.949 128.47 284.936C128.47 284.923 128.466 284.91 128.459 284.899C128.452 284.888 128.443 284.879 128.431 284.873C128.42 284.866 128.407 284.863 128.394 284.863Z" fill="#263238"/>
<path d="M159.38 154.234C155.586 155.119 151.874 156.324 148.284 157.837C148.269 157.842 148.256 157.85 148.244 157.86C148.233 157.87 148.224 157.882 148.217 157.896C148.21 157.91 148.206 157.925 148.205 157.94C148.204 157.955 148.206 157.97 148.211 157.985C148.216 157.999 148.224 158.013 148.234 158.024C148.245 158.036 148.257 158.045 148.271 158.052C148.284 158.058 148.299 158.062 148.315 158.063C148.33 158.064 148.345 158.062 148.36 158.057C152.084 156.97 155.868 155.952 159.532 154.668C159.813 154.569 159.668 154.174 159.38 154.234Z" fill="#263238"/>
<path d="M155.04 152.76C154.686 153.39 154.374 154.042 154.105 154.713C153.843 155.222 153.68 155.777 153.626 156.347C153.626 156.461 153.778 156.484 153.847 156.415C154.228 155.959 154.536 155.447 154.759 154.895C155.07 154.295 155.39 153.702 155.686 153.087C155.891 152.638 155.276 152.349 155.04 152.76Z" fill="#263238"/>
<path d="M155.496 149.309C155.724 148.747 155.944 148.192 156.18 147.63C156.416 147.067 156.712 146.49 156.94 145.897C156.94 145.806 157.122 145.897 157.084 145.965C156.856 146.528 156.712 147.12 156.537 147.698C156.362 148.276 156.165 148.853 155.975 149.431C155.618 150.502 155.215 151.566 154.721 152.608C155.319 152.637 155.916 152.534 156.469 152.304C157.033 151.942 157.468 151.41 157.708 150.784C158.027 150.16 158.323 149.522 158.65 148.899C159.052 148.225 159.391 147.515 159.661 146.778C159.661 146.687 159.843 146.778 159.805 146.847C159.31 148.404 158.66 149.909 157.867 151.338C157.525 151.893 157.259 152.478 156.636 152.691C155.961 152.88 155.255 152.929 154.561 152.836C154.47 152.836 154.364 152.836 154.394 152.699C154.705 151.551 155.073 150.42 155.496 149.309Z" fill="#263238"/>
<path d="M153.946 156.408C155.245 159.151 156.385 161.887 157.594 164.623C158.802 167.359 159.874 170.004 160.96 172.725C163.134 178.212 165.08 183.806 166.79 189.445C167.633 192.242 168.416 195.061 169.115 197.904C169.885 200.737 170.449 203.622 170.802 206.537C171.107 209.447 170.849 212.389 170.042 215.201C169.204 217.981 168.129 220.684 166.828 223.28C166.03 224.922 165.764 224.701 166.144 223.873C167.23 221.517 170.08 214.38 169.875 208.384C169.709 205.513 169.266 202.665 168.553 199.88C167.889 197.007 167.142 194.157 166.311 191.33C164.692 185.751 162.769 180.287 160.793 174.83C159.684 171.79 158.513 168.75 157.373 165.71C156.233 162.67 155.093 159.873 153.816 156.514C153.778 156.377 153.908 156.324 153.946 156.408Z" fill="#263238"/>
<path d="M127.125 147.341C127.756 147.105 128.645 147.493 129.284 147.599C130.11 147.74 130.946 147.824 131.784 147.85C132.613 147.88 133.444 147.852 134.269 147.767C135.1 147.745 135.915 147.529 136.648 147.136C137.85 146.26 138.881 145.17 139.688 143.921C140.65 142.645 141.444 141.25 142.052 139.771C142.052 139.68 142.211 139.771 142.181 139.832C141.915 140.676 141.717 141.527 141.421 142.355C141.093 143.134 140.702 143.884 140.25 144.597C139.519 146.034 138.436 147.262 137.104 148.169C135.637 149.005 133.752 148.929 132.118 148.861C131.171 148.806 130.228 148.681 129.299 148.489C128.63 148.344 127.505 148.238 127.08 147.653C127.06 147.63 127.045 147.604 127.036 147.575C127.027 147.546 127.025 147.516 127.03 147.486C127.034 147.457 127.045 147.428 127.061 147.403C127.078 147.378 127.1 147.357 127.125 147.341Z" fill="#263238"/>
<path d="M101.582 270.56C107.388 261.764 113.088 252.897 118.682 243.96C124.275 235.022 129.793 226.016 135.234 216.942C136.534 214.776 138.031 212.617 138.867 210.216C139.779 207.609 139.263 205.078 138.442 202.524C136.892 197.866 135.08 193.299 133.015 188.844C130.979 184.353 128.782 179.937 126.624 175.506C124.465 171.076 122.208 166.698 120.544 162.077C119.024 157.662 118.408 153.086 119.594 148.511C120.779 143.936 123.333 139.893 126 136.085C126.7 135.082 127.422 134.086 128.128 133.045C128.182 132.969 128.296 133.045 128.243 133.136C125.301 137.104 122.436 141.306 120.711 145.965C119.829 148.262 119.336 150.689 119.252 153.147C119.237 155.643 119.625 158.124 120.399 160.496C121.828 165.117 124.085 169.487 126.19 173.834C128.296 178.182 130.545 182.681 132.62 187.157C134.761 191.663 136.663 196.277 138.32 200.982C139.027 203.072 139.84 205.26 139.779 207.502C139.726 209.957 138.556 212.169 137.34 214.236C132.02 223.242 126.571 232.142 121.023 240.988C115.475 249.834 109.767 258.681 103.991 267.436L101.802 270.742C101.688 270.879 101.491 270.719 101.582 270.56Z" fill="#263238"/>
<path d="M165.308 104.477C168.598 111.697 185.22 121.646 193.002 122.717C198.596 123.477 215.604 123.751 221.433 122.862C228.273 121.813 223.045 103.383 219.009 103.862C207.913 105.154 198.489 106.598 195.525 106.598C191.907 106.598 172.338 100.32 169.982 99.4307C164.206 97.2799 163.446 100.381 165.308 104.477Z" fill="#EB9481"/>
<path d="M165.414 106.4C169.579 112.563 183.418 122.641 183.418 122.641L185.341 118.385L191.702 104.31C191.702 104.31 178.988 100.32 170.62 98.4959C169.635 98.2718 168.634 98.1294 167.626 98.0703C162.283 97.7815 161.819 101.08 165.414 106.4Z" fill="#0367A6"/>
<path d="M165.414 106.4C169.579 112.563 183.418 122.641 183.418 122.641L185.341 118.385C180.181 112.388 172.208 103.306 167.626 98.0853C162.283 97.7813 161.819 101.08 165.414 106.4Z" fill="#263238"/>
<path d="M180.926 119.783C181.982 117.192 186.679 106.757 187.849 104.583C187.925 104.431 188.047 104.447 187.978 104.583C185.941 109.773 183.622 114.847 181.032 119.783C181.002 119.875 180.88 119.844 180.926 119.783Z" fill="#263238"/>
<path d="M216.972 104.052C223.721 103.17 232.074 101.658 239.149 104.66C239.944 104.971 240.611 105.542 241.042 106.278C244.234 107.57 244.583 109.463 244.583 109.463C247.19 111.576 247.281 113.567 247.281 113.567C247.281 113.567 251.02 115.087 250.45 117.534C249.827 120.24 244.705 117.534 240.981 117.754C232.431 118.286 220.461 121.425 217.991 121.82L216.972 104.052Z" fill="#EB9481"/>
<path d="M231.633 112.016C234.133 111.845 236.641 111.845 239.142 112.016C241.864 112.358 244.557 112.904 247.198 113.65C247.215 113.656 247.233 113.655 247.25 113.648C247.266 113.64 247.279 113.626 247.285 113.609C247.291 113.591 247.29 113.573 247.282 113.556C247.274 113.54 247.26 113.527 247.243 113.521C242.283 111.575 236.883 111.028 231.633 111.94C231.511 111.925 231.511 112.024 231.633 112.016Z" fill="#263238"/>
<path d="M230.044 104.12C234.217 104.333 236.824 105.002 241.019 106.263V106.218C236.398 104.287 234.506 104.105 230.022 103.938C229.877 103.998 229.885 104.12 230.044 104.12Z" fill="#263238"/>
<path d="M230.721 119.046C229.634 119.556 229.9 120.126 231.975 120.604C234.05 121.083 242.676 121.228 242.372 124.237C242.068 127.247 229.9 126.867 226.503 125.803C223.106 124.739 217.991 121.82 217.991 121.82C220.4 121.418 226.054 119.89 230.721 119.046Z" fill="#EB9481"/>
<path d="M174.344 115.983C174.291 117.283 174.169 118.605 173.987 119.92C173.987 119.867 173.987 119.821 174.04 119.776C174.291 119.092 174.542 118.393 174.846 117.731C174.846 117.731 174.922 117.731 174.914 117.731C174.768 118.456 174.549 119.164 174.26 119.844C174.124 120.171 173.994 120.49 173.85 120.809C173.759 121.395 173.652 121.972 173.538 122.55C173.31 123.637 172.284 128.257 172.018 129.04C171.973 129.2 171.775 129.162 171.79 128.979C171.844 128.128 172.702 123.317 172.877 122.223C173.217 120.11 173.671 118.017 174.238 115.953C174.276 115.915 174.352 115.945 174.344 115.983Z" fill="#263238"/>
<path d="M166.44 150.54C164.411 151.582 161.796 153.2 150.016 150.882C149.256 150.73 148.542 150.548 147.797 150.328C136.754 147.014 123.477 134.026 122.755 133.106C122.755 133.106 140.304 104.659 162.746 95.7141C165.52 94.6121 170.111 96.7401 172.626 99.3925C173.531 100.342 175.499 107.327 174.747 112.981C173.994 118.636 168.462 149.499 166.44 150.54Z" fill="#0367A6"/>
<path d="M164.859 112.723C164.944 113.925 164.776 115.132 164.365 116.265C164.269 115.062 164.437 113.853 164.859 112.723Z" fill="white"/>
<path d="M157.206 132.095C157.254 132.693 157.234 133.295 157.145 133.889C157.072 134.487 156.927 135.074 156.712 135.637C156.66 135.036 156.68 134.431 156.773 133.836C156.851 133.241 156.996 132.657 157.206 132.095Z" fill="white"/>
<path d="M144.202 117.45C144.288 118.655 144.12 119.864 143.708 120.999C143.613 119.794 143.781 118.583 144.202 117.45Z" fill="white"/>
<path d="M169.867 131.107C169.916 131.708 169.896 132.313 169.807 132.909C169.734 133.507 169.588 134.094 169.373 134.657C169.321 134.056 169.342 133.451 169.434 132.855C169.511 132.258 169.656 131.672 169.867 131.107Z" fill="white"/>
<path d="M153.17 114.942C153.768 114.891 154.37 114.909 154.964 114.996C155.562 115.071 156.149 115.219 156.712 115.436C155.51 115.523 154.303 115.354 153.17 114.942Z" fill="white"/>
<path d="M138.411 128.934C139.613 128.849 140.82 129.017 141.953 129.428C140.75 129.524 139.541 129.356 138.411 128.934Z" fill="white"/>
<path d="M155.8 144.081C157.002 143.994 158.209 144.163 159.342 144.575C158.139 144.669 156.931 144.501 155.8 144.081Z" fill="white"/>
<path d="M133.859 138.578C135.061 138.493 136.267 138.662 137.4 139.072C136.198 139.167 134.989 138.998 133.859 138.578Z" fill="white"/>
<path d="M164.745 99.1039C165.947 99.0191 167.154 99.1874 168.287 99.5979C167.085 99.6826 165.878 99.5143 164.745 99.1039Z" fill="white"/>
<path d="M160.451 103.953C160.067 104.415 159.628 104.828 159.144 105.184C158.673 105.548 158.163 105.859 157.624 106.111C158.006 105.652 158.439 105.239 158.916 104.88C159.391 104.514 159.906 104.203 160.451 103.953Z" fill="white"/>
<path d="M137.051 117.731C136.662 118.189 136.221 118.6 135.736 118.955C135.27 119.326 134.759 119.638 134.216 119.882C134.607 119.426 135.048 119.016 135.531 118.659C135.998 118.289 136.509 117.978 137.051 117.731Z" fill="white"/>
<path d="M166.273 123.948C165.884 124.408 165.443 124.822 164.958 125.179C164.491 125.549 163.98 125.86 163.438 126.107C163.827 125.646 164.268 125.233 164.753 124.875C165.223 124.51 165.733 124.199 166.273 123.948Z" fill="white"/>
<path d="M147.349 135.865C146.96 136.325 146.519 136.739 146.034 137.096C145.566 137.465 145.056 137.776 144.514 138.024C144.903 137.563 145.344 137.15 145.829 136.792C146.299 136.427 146.809 136.116 147.349 135.865Z" fill="white"/>
<path d="M173.523 107.669C173.135 108.129 172.693 108.542 172.208 108.9C171.738 109.264 171.228 109.575 170.688 109.827C171.077 109.367 171.519 108.954 172.003 108.596C172.471 108.228 172.982 107.917 173.523 107.669Z" fill="white"/>
<path d="M173.128 121.478C172.668 121.09 172.254 120.648 171.897 120.164C171.527 119.697 171.215 119.186 170.969 118.644C171.431 119.028 171.845 119.467 172.201 119.951C172.564 120.425 172.875 120.937 173.128 121.478Z" fill="white"/>
<path d="M130.948 130.993C130.488 130.605 130.074 130.163 129.717 129.679C129.351 129.209 129.04 128.699 128.79 128.159C129.25 128.547 129.663 128.989 130.021 129.473C130.389 129.942 130.7 130.452 130.948 130.993Z" fill="white"/>
<path d="M167.998 142.31C167.536 141.925 167.123 141.486 166.767 141.002C166.403 140.531 166.092 140.022 165.84 139.482C166.3 139.871 166.713 140.312 167.071 140.797C167.438 141.264 167.749 141.771 167.998 142.31Z" fill="white"/>
<path d="M149.431 110.048C148.971 109.662 148.558 109.223 148.2 108.741C147.837 108.269 147.526 107.759 147.273 107.221C147.735 107.605 148.148 108.044 148.504 108.528C148.867 109 149.177 109.509 149.431 110.048Z" fill="white"/>
<path d="M149.758 148.755C149.298 148.366 148.885 147.925 148.527 147.44C148.162 146.969 147.851 146.459 147.6 145.92C148.061 146.304 148.475 146.743 148.831 147.227C149.197 147.7 149.508 148.212 149.758 148.755Z" fill="white"/>
<path d="M152.912 125.924C152.456 125.533 152.046 125.092 151.688 124.609C151.317 124.143 151.006 123.633 150.761 123.089C151.219 123.478 151.63 123.92 151.985 124.404C152.354 124.871 152.666 125.382 152.912 125.924Z" fill="white"/>
<path d="M168.515 106.97C165.65 106.438 162.959 100.518 162.617 96.5352C162.617 96.2616 163.955 94.0956 165.482 91.3824C166.41 89.7332 167.39 87.8712 168.173 86.108C168.332 85.7508 169.267 86.9592 169.267 86.9592L171.304 88.4792L178.03 93.6396C176.428 95.5616 175.068 97.6723 173.979 99.9248C173.872 100.169 173.79 100.424 173.736 100.685C173.733 100.728 173.733 100.771 173.736 100.814C173.318 102.319 171.274 107.479 168.515 106.97Z" fill="#EB9481"/>
<path d="M173.736 100.723C173.733 100.766 173.733 100.809 173.736 100.852C173.337 100.735 172.948 100.585 172.573 100.404C165.209 96.9532 168.454 87.0884 168.454 87.0884L171.342 88.5172L178.068 93.6776C176.466 95.5995 175.106 97.7103 174.017 99.9628C173.897 100.205 173.802 100.46 173.736 100.723Z" fill="#263238"/>
<path d="M185.759 72.6406C185.759 72.6406 189.126 74.7762 189.141 78.5762C189.156 82.3762 187.621 86.0926 187.302 86.2294C186.983 86.3662 185.759 72.6406 185.759 72.6406Z" fill="#263238"/>
<path d="M169.054 74.6167C167.033 78.6067 167.139 91.1847 169.662 94.4223C173.326 99.1191 180.378 100.738 184.642 96.0943C188.769 91.5951 188.343 75.2095 185.402 72.1543C181.123 67.6399 172.049 68.7115 169.054 74.6167Z" fill="#EB9481"/>
<path d="M179.786 84.6865C179.786 84.6865 179.717 84.7321 179.725 84.7625C179.77 85.6213 179.679 86.6093 178.912 86.9133C178.912 86.9133 178.912 86.9665 178.912 86.9589C179.862 86.8069 179.968 85.4921 179.786 84.6865Z" fill="#263238"/>
<path d="M179.003 83.8126C177.62 83.7366 177.574 86.503 178.858 86.5714C180.143 86.6398 180.158 83.8734 179.003 83.8126Z" fill="#263238"/>
<path d="M184.475 84.6562C184.475 84.6562 184.543 84.6562 184.543 84.7322C184.498 85.591 184.596 86.579 185.372 86.8754C185.372 86.8754 185.372 86.9287 185.372 86.9211C184.414 86.7767 184.3 85.4618 184.475 84.6562Z" fill="#263238"/>
<path d="M185.258 83.7748C186.633 83.6912 186.702 86.4576 185.425 86.5336C184.148 86.6096 184.102 83.8432 185.258 83.7748Z" fill="#263238"/>
<path d="M178.136 81.7074C178.5 81.6041 178.857 81.4823 179.208 81.3426C179.607 81.2704 179.971 81.0671 180.242 80.765C180.307 80.6544 180.335 80.5252 180.32 80.3975C180.305 80.2697 180.248 80.1505 180.158 80.0582C179.952 79.9019 179.709 79.8032 179.452 79.7725C179.196 79.7418 178.936 79.7801 178.699 79.8834C178.186 80.0207 177.742 80.3429 177.452 80.7878C177.395 80.8937 177.368 81.0139 177.377 81.1342C177.385 81.2545 177.428 81.3699 177.5 81.4667C177.572 81.5635 177.67 81.6376 177.783 81.6803C177.896 81.7229 178.018 81.7324 178.136 81.7074Z" fill="#263238"/>
<path d="M186.2 82.9311C185.83 82.8484 185.465 82.747 185.106 82.6271C184.705 82.5741 184.334 82.3896 184.049 82.1027C183.976 81.997 183.941 81.8697 183.949 81.7413C183.957 81.613 184.009 81.4913 184.095 81.3959C184.291 81.2283 184.528 81.1166 184.782 81.0725C185.037 81.0283 185.298 81.0534 185.539 81.1451C186.059 81.2528 186.52 81.551 186.831 81.9811C186.896 82.0829 186.93 82.2014 186.929 82.3222C186.928 82.4431 186.892 82.561 186.825 82.6617C186.758 82.7623 186.664 82.8414 186.553 82.8892C186.442 82.9371 186.319 82.9516 186.2 82.9311Z" fill="#263238"/>
<path d="M177.84 92.8112C178.045 93.0164 178.243 93.29 178.554 93.3204C178.874 93.3202 179.19 93.2529 179.482 93.1228C179.482 93.1228 179.535 93.1228 179.482 93.1684C179.357 93.3354 179.189 93.4654 178.997 93.5444C178.804 93.6234 178.593 93.6484 178.387 93.6168C178.214 93.5694 178.058 93.4722 177.939 93.3371C177.82 93.202 177.743 93.035 177.718 92.8568C177.712 92.8407 177.713 92.8228 177.72 92.8071C177.727 92.7914 177.74 92.7792 177.756 92.7732C177.773 92.7671 177.79 92.7677 177.806 92.7749C177.822 92.782 177.834 92.7951 177.84 92.8112Z" fill="#263238"/>
<path d="M182.81 89.1479C182.81 89.1479 182.848 90.4247 182.81 91.0251C181.642 90.9012 180.463 90.9421 179.307 91.1467C179.033 91.2075 179.063 90.9871 179.375 90.8427C180.307 90.417 181.344 90.2794 182.354 90.4475C182.415 90.2879 182.255 88.4715 182.354 88.4791C182.814 88.5694 183.259 88.7228 183.677 88.9351C183.677 86.2599 183.251 83.6151 183.289 80.9399C183.289 80.8487 183.433 80.8335 183.449 80.9399C183.989 83.77 184.243 86.647 184.209 89.5279C184.216 89.8547 183.038 89.2695 182.81 89.1479Z" fill="#263238"/>
<path d="M181.1 90.5688C180.798 91.3657 180.235 92.0376 179.504 92.4764C178.357 92.94 177.984 91.8988 179.14 90.9564C179.745 90.6502 180.424 90.5161 181.1 90.5688Z" fill="#263238"/>
<path d="M179.907 92.2411C179.786 92.3399 179.65 92.4194 179.505 92.4767C178.448 92.9023 178.03 92.0587 178.881 91.2075C179.459 91.2531 180.12 91.4659 179.907 92.2411Z" fill="#FF99BA"/>
<path d="M168.477 85.3706C169.868 85.7962 171.464 81.6162 171.92 80.0506C172.315 78.637 172.771 74.1454 172.839 73.8338C172.908 73.5222 178.919 77.8086 182.4 76.7902C185.881 75.7718 188.244 72.6178 188.298 71.151C188.351 69.6842 183.996 65.9602 180.234 65.7702C176.472 65.5802 171.372 70.3302 171.372 70.3302C171.988 69.6312 172.547 68.884 173.044 68.0958C172.984 67.9286 170.552 68.9014 170.103 70.6342C170.103 70.6342 170.59 68.453 170.407 68.415C170.225 68.377 168.332 70.239 168.758 71.6526C168.758 71.6526 166.569 73.545 166.372 75.6198C166.174 77.6946 166.843 84.869 168.477 85.3706Z" fill="#263238"/>
<path d="M184.893 75.9998C183.858 76.5611 182.743 76.9609 181.587 77.1854C180.289 77.3011 178.983 77.0922 177.787 76.5774C176.581 76.1117 175.462 75.4491 174.473 74.6166C173.599 73.9022 172.816 73.0282 171.882 72.3898C171.646 72.2226 171.38 72.5646 171.524 72.7774C173.084 74.9803 175.312 76.6219 177.878 77.459C179.07 77.8475 180.342 77.9202 181.57 77.6697C182.798 77.4193 183.941 76.8543 184.885 76.0302C184.885 76.0302 184.908 75.9998 184.893 75.9998Z" fill="#263238"/>
<path d="M169.928 84.998C169.928 84.998 167.77 80.6204 165.824 81.3272C163.879 82.034 165.064 88.0912 167.063 89.2008C167.308 89.3592 167.582 89.4666 167.87 89.5164C168.157 89.5662 168.451 89.5575 168.735 89.4908C169.019 89.4241 169.287 89.3007 169.522 89.1282C169.757 88.9556 169.954 88.7373 170.103 88.4864L169.928 84.998Z" fill="#EB9481"/>
<path d="M166.212 83.0527C166.212 83.0527 166.166 83.0527 166.212 83.1135C167.595 83.9343 168.158 85.3935 168.492 86.9135C168.429 86.7526 168.332 86.6073 168.207 86.4876C168.083 86.368 167.933 86.2768 167.77 86.2204C167.607 86.164 167.433 86.1438 167.261 86.1611C167.089 86.1785 166.923 86.2329 166.774 86.3207C166.729 86.3207 166.774 86.4043 166.774 86.4043C167.046 86.3621 167.324 86.4051 167.571 86.5276C167.817 86.6501 168.02 86.846 168.15 87.0883C168.367 87.4942 168.541 87.9222 168.667 88.3651C168.712 88.5095 168.963 88.4715 168.94 88.3119C169.267 86.4195 168.203 83.5543 166.212 83.0527Z" fill="#263238"/>
<path d="M155.678 104.545C154.158 113.156 163.491 142.165 169.472 147.584C178.372 155.64 194.826 160.937 200.792 162.663C203.391 163.423 210.581 145.129 207.951 143.921C202.32 141.36 184.824 135.888 183.16 134.52C181.496 133.152 171.464 118.659 166.995 110.314C161.014 99.0811 156.431 100.191 155.678 104.545Z" fill="#EB9481"/>
<path d="M203.52 142.31C203.52 142.31 211.288 144.293 216.296 145.821C219.093 146.68 223.759 148.572 225.53 150.138C228.175 152.486 237.736 163.977 235 166.356C232.522 168.514 225.56 157.593 225.56 157.593C225.56 157.593 233.556 167.99 230.12 170.034C226.685 172.079 220.4 158.695 220.4 158.695C220.4 158.695 228.372 169.563 224.474 171.106C221.525 172.269 215.202 160.466 215.202 160.466C215.202 160.466 221.996 169.852 219.002 171.182C215.703 172.656 209.19 162.123 209.19 162.123C201.043 164.228 196.27 161.895 193.131 159.843C192.394 159.341 203.52 142.31 203.52 142.31Z" fill="#EB9481"/>
<path d="M223.022 153.816C224.01 155.002 225.013 156.203 225.887 157.472C226.761 158.741 227.59 160.048 228.342 161.394C229.361 163.133 230.177 164.985 230.774 166.911C229.467 163.567 226.404 158.969 225.53 157.7C224.656 156.431 223.843 155.116 222.976 153.847C222.954 153.816 222.999 153.786 223.022 153.816Z" fill="#263238"/>
<path d="M218.379 156.894C220.066 158.232 223.6 163.202 224.96 166.539C225.021 166.675 224.96 166.668 224.861 166.539C223.797 164.889 219.481 158.505 218.341 156.917C218.318 156.894 218.356 156.871 218.379 156.894Z" fill="#263238"/>
<path d="M213.917 158.84C216.014 161.039 217.67 163.618 218.797 166.44C218.85 166.577 218.743 166.554 218.66 166.44C217.087 163.879 215.871 161.88 213.834 158.908C213.803 158.84 213.872 158.771 213.917 158.84Z" fill="#263238"/>
<path d="M164.16 105.176C157.221 95.3648 153.072 98.9976 154.462 109.653C155.77 119.616 159.258 131.488 159.258 131.488L176.738 123.006C176.738 123.006 168.576 111.462 164.16 105.176Z" fill="#0367A6"/>
<path d="M168.378 109.037C168.608 109.591 168.774 110.17 168.872 110.762C168.979 111.356 169.017 111.961 168.986 112.564C168.758 112.006 168.595 111.425 168.499 110.831C168.386 110.24 168.346 109.638 168.378 109.037Z" fill="white"/>
<path d="M158.019 115.003C159.135 114.549 160.335 114.342 161.538 114.395C160.984 114.623 160.405 114.786 159.813 114.881C159.222 114.994 158.62 115.035 158.019 115.003Z" fill="white"/>
<path d="M158.468 99.7422C157.997 100.853 157.295 101.85 156.408 102.668C156.879 101.557 157.581 100.56 158.468 99.7422Z" fill="white"/>
<path d="M173.28 119.586C173.049 120.142 172.756 120.67 172.406 121.159C172.065 121.655 171.667 122.109 171.22 122.512C171.691 121.401 172.393 120.404 173.28 119.586Z" fill="white"/>
<path d="M161.12 125.537C160.563 125.309 160.035 125.015 159.547 124.663C159.051 124.322 158.597 123.924 158.194 123.477C159.305 123.948 160.302 124.65 161.12 125.537Z" fill="white"/>
<path d="M166.44 108.133C167.375 109.417 168.34 110.671 169.298 111.933C169.054 111.294 168.842 110.648 168.659 109.995H168.705C168.895 110.496 169.115 110.99 169.298 111.515L169.571 112.275C169.595 112.327 169.615 112.38 169.632 112.434C170.392 113.415 171.152 114.395 171.851 115.398C172.71 116.599 173.538 117.815 174.374 119.031C175.21 120.247 176.054 121.76 176.958 122.983C177.042 123.09 175.438 123.743 175.264 123.827C175.089 123.91 174.998 123.766 175.165 123.713C175.332 123.66 176.609 122.877 176.624 122.862C175.788 121.63 174.823 120.498 173.949 119.305C173.075 118.112 172.208 116.918 171.365 115.71C169.655 113.248 168.089 110.694 166.387 108.224L166.44 108.133Z" fill="#263238"/>
<path d="M154.873 116.706C155.139 117.222 155.428 117.732 155.633 118.264L155.922 118.925C155.519 117.032 155.162 115.125 154.744 113.232C155.549 116.272 156.362 119.381 157.107 122.466C157.814 125.415 158.673 128.394 159.083 131.404C159.613 131.172 160.163 130.986 160.725 130.849C160.161 131.214 159.553 131.508 158.916 131.723C158 128.663 157.239 125.558 156.636 122.421C156.446 121.57 156.271 120.718 156.089 119.867C155.891 119.35 155.656 118.856 155.42 118.347C155.184 117.838 154.972 117.268 154.759 116.728C154.804 116.698 154.858 116.668 154.873 116.706Z" fill="#263238"/>
<path d="M159.516 128.554C161.948 127.186 172.109 121.927 174.382 120.954C174.541 120.885 174.625 120.954 174.465 121.06C169.642 123.863 164.67 126.4 159.57 128.66C159.509 128.675 159.448 128.592 159.516 128.554Z" fill="#263238"/>
<path d="M438.003 328.358H206.446L239.924 138.472H471.481L438.003 328.358Z" fill="#0367A6"/>
<path d="M319.177 118.803H243.398L239.924 138.472H321.024L319.177 118.803Z" fill="#0367A6"/>
<g opacity="0.1">
<path d="M438.003 328.358H206.446L239.924 138.472H471.481L438.003 328.358Z" fill="black"/>
<path d="M319.177 118.803H243.398L239.924 138.472H321.024L319.177 118.803Z" fill="black"/>
</g>
<path d="M235.22 126.829C234.713 124.654 234.713 122.392 235.22 120.217C235.727 122.392 235.727 124.654 235.22 126.829Z" fill="#263238"/>
<path d="M228.486 128.774C227.713 127.972 227.046 127.073 226.503 126.099C225.933 125.146 225.486 124.124 225.173 123.059C225.949 123.857 226.616 124.754 227.156 125.727C227.725 126.683 228.172 127.707 228.486 128.774Z" fill="#263238"/>
<path d="M223.622 133.828C221.487 133.179 219.529 132.048 217.899 130.522C218.965 130.832 219.986 131.277 220.939 131.845C221.913 132.391 222.814 133.058 223.622 133.828Z" fill="#263238"/>
<path d="M221.92 140.638C219.745 141.145 217.483 141.145 215.308 140.638C217.483 140.131 219.745 140.131 221.92 140.638Z" fill="#263238"/>
<path d="M223.896 147.372C223.09 148.141 222.191 148.808 221.221 149.355C220.268 149.924 219.246 150.368 218.181 150.678C218.983 149.904 219.882 149.237 220.856 148.694C221.807 148.123 222.829 147.678 223.896 147.372Z" fill="#263238"/>
<path d="M228.942 152.228C228.295 154.367 227.164 156.328 225.636 157.958C225.946 156.892 226.393 155.87 226.966 154.918C227.508 153.941 228.172 153.037 228.942 152.228Z" fill="#263238"/>
<path d="M235.752 153.908C236.017 154.989 236.145 156.1 236.132 157.214C236.148 158.327 236.021 159.439 235.752 160.52C235.48 159.439 235.352 158.328 235.372 157.214C235.359 156.1 235.487 154.989 235.752 153.908Z" fill="#263238"/>
<path d="M242.486 152C243.259 152.802 243.926 153.702 244.469 154.675C245.04 155.627 245.485 156.649 245.792 157.715C244.264 156.085 243.133 154.124 242.486 151.985V152Z" fill="#263238"/>
<path d="M247.342 146.908C248.409 147.215 249.43 147.66 250.382 148.231C251.356 148.774 252.255 149.44 253.057 150.214C251.991 149.907 250.969 149.463 250.017 148.892C249.044 148.349 248.144 147.682 247.342 146.908Z" fill="#263238"/>
<path d="M249.021 140.098C251.199 139.592 253.464 139.592 255.641 140.098C253.464 140.605 251.199 140.605 249.021 140.098Z" fill="#263238"/>
<path d="M247.076 133.365C247.881 132.595 248.779 131.931 249.751 131.389C250.701 130.812 251.723 130.365 252.791 130.059C251.161 131.586 249.2 132.718 247.061 133.365H247.076Z" fill="#263238"/>
<path d="M242.022 128.509C242.335 127.444 242.779 126.423 243.344 125.469C243.887 124.495 244.554 123.596 245.328 122.793C245.021 123.86 244.577 124.882 244.006 125.833C243.463 126.807 242.796 127.706 242.022 128.509Z" fill="#263238"/>
<path d="M437.661 328.358H205.61L172.657 145.365H404.715L437.661 328.358Z" fill="#0367A6"/>
<path d="M253.072 257.23C258.399 257.23 262.717 252.912 262.717 247.585C262.717 242.259 258.399 237.941 253.072 237.941C247.746 237.941 243.428 242.259 243.428 247.585C243.428 252.912 247.746 257.23 253.072 257.23Z" fill="#263238"/>
<path d="M329.316 257.23C334.642 257.23 338.96 252.912 338.96 247.585C338.96 242.259 334.642 237.941 329.316 237.941C323.989 237.941 319.671 242.259 319.671 247.585C319.671 252.912 323.989 257.23 329.316 257.23Z" fill="#263238"/>
<path d="M305.049 258.772L304.517 257.762C304.471 257.67 299.486 248.459 289.461 248.459C280.341 248.459 278.061 257.131 278 257.503L277.727 258.605L275.515 258.073L275.781 256.964C275.781 256.857 278.502 246.179 289.461 246.179C300.861 246.179 306.31 256.272 306.538 256.705L307.07 257.708L305.049 258.772Z" fill="#263238"/>
<path d="M422.34 246.848L422.18 246.088C422.674 245.982 423.16 245.868 423.647 245.739L423.837 246.499C423.32 246.628 422.841 246.742 422.34 246.848Z" fill="#263238"/>
<path d="M426.778 245.625L426.535 244.91C427.485 244.583 428.435 244.226 429.354 243.839L429.651 244.538C428.716 244.933 427.751 245.298 426.778 245.625ZM432.44 243.2L432.098 242.531C432.987 242.068 433.876 241.566 434.72 241.011L435.115 241.657C434.249 242.258 433.344 242.767 432.44 243.2ZM437.669 239.985L437.22 239.37C438.041 238.769 438.832 238.139 439.576 237.493L440.078 238.063C439.28 238.754 438.52 239.4 437.661 240.016L437.669 239.985ZM442.305 235.942L441.75 235.418C442.449 234.658 443.11 233.898 443.718 233.138L444.319 233.601C443.688 234.437 443.012 235.22 442.32 235.973L442.305 235.942ZM446.067 231.078L445.421 230.675C445.946 229.826 446.413 228.943 446.819 228.031L447.518 228.342C447.089 229.293 446.601 230.217 446.059 231.109L446.067 231.078ZM448.582 225.439L447.822 225.226C448.1 224.273 448.306 223.3 448.438 222.315L449.198 222.414C449.072 223.448 448.864 224.469 448.575 225.469L448.582 225.439ZM449.426 219.359H448.666V219.139C448.666 218.219 448.613 217.284 448.522 216.365L449.282 216.289C449.381 217.235 449.432 218.187 449.434 219.139L449.426 219.359ZM448.058 213.408C447.853 212.428 447.6 211.459 447.298 210.505L448.058 210.277C448.37 211.265 448.636 212.268 448.818 213.249L448.058 213.408ZM446.257 207.685C445.892 206.789 445.497 205.869 445.01 204.942L445.694 204.6C446.158 205.542 446.584 206.485 446.956 207.397L446.257 207.685ZM443.597 202.267C443.126 201.438 442.609 200.564 442.077 199.667L442.723 199.265C443.278 200.169 443.802 201.051 444.243 201.894L443.597 202.267ZM440.42 197.106C439.865 196.27 439.303 195.427 438.725 194.583L439.356 194.157C439.934 195.001 440.496 195.845 441.051 196.696L440.42 197.106ZM437 192.075C436.43 191.239 435.852 190.395 435.29 189.559L435.921 189.134C436.483 189.97 437.053 190.813 437.623 191.642L437 192.075ZM433.603 187.013C433.048 186.162 432.508 185.296 431.976 184.429L432.622 184.034C433.154 184.901 433.694 185.752 434.241 186.603L433.603 187.013ZM430.434 181.792C429.917 180.873 429.438 179.961 429.005 179.087L429.689 178.745C430.114 179.611 430.593 180.508 431.095 181.42L430.434 181.792ZM427.736 176.32C427.333 175.37 426.976 174.405 426.641 173.463L427.401 173.219C427.72 174.139 428.078 175.089 428.473 176.024L427.736 176.32ZM425.76 170.521C425.509 169.533 425.288 168.523 425.121 167.481L425.881 167.36C426.048 168.333 426.254 169.321 426.504 170.293L425.76 170.521ZM424.741 164.441C424.665 163.507 424.627 162.564 424.627 161.622V161.371H425.387V161.614C425.387 162.534 425.387 163.461 425.501 164.373L424.741 164.441ZM425.501 158.361L424.741 158.285C424.741 158.08 424.779 157.867 424.802 157.647C424.893 156.834 425.007 156.021 425.144 155.245L425.904 155.375C425.775 156.135 425.661 156.933 425.57 157.731C425.6 157.966 425.6 158.171 425.539 158.384L425.501 158.361ZM426.558 152.449L425.798 152.243C426.079 151.24 426.406 150.26 426.77 149.325L427.477 149.599C427.132 150.54 426.838 151.499 426.596 152.471L426.558 152.449ZM464.428 148.018C464.003 148.018 463.562 147.957 463.129 147.896C462.536 147.813 461.943 147.714 461.358 147.6L461.51 146.84C462.072 146.946 462.658 147.045 463.235 147.129C463.646 147.182 464.064 147.22 464.466 147.243L464.428 148.018ZM467.552 147.782L467.392 147.022C468.346 146.825 469.261 146.471 470.098 145.973L470.493 146.619C469.598 147.173 468.617 147.574 467.59 147.805L467.552 147.782ZM428.746 146.878L428.07 146.521C428.554 145.614 429.089 144.736 429.674 143.891L430.297 144.324C429.741 145.152 429.236 146.012 428.784 146.901L428.746 146.878ZM458.386 146.832C457.405 146.521 456.441 146.158 455.498 145.745L455.81 145.046C456.724 145.452 457.66 145.805 458.614 146.103L458.386 146.832ZM472.826 144.461L472.196 144.035C472.737 143.25 473.057 142.334 473.123 141.383L473.883 141.436C473.818 142.527 473.461 143.579 472.849 144.484L472.826 144.461ZM452.762 144.347C451.873 143.83 451.013 143.264 450.186 142.652L450.634 142.044C451.439 142.638 452.276 143.186 453.142 143.686L452.762 144.347ZM432.166 141.976L431.604 141.467C432.292 140.701 433.026 139.978 433.8 139.301L434.302 139.871C433.556 140.538 432.851 141.248 432.189 141.999L432.166 141.976ZM447.815 140.691C447.058 139.994 446.34 139.256 445.664 138.48L446.234 137.978C446.892 138.732 447.589 139.45 448.324 140.129L447.815 140.691ZM472.553 138.632C472.117 137.763 471.516 136.989 470.782 136.352L471.284 135.782C472.091 136.48 472.755 137.33 473.237 138.282L472.553 138.632ZM436.666 138.031L436.232 137.408C437.083 136.828 437.963 136.293 438.87 135.805L439.227 136.473C438.354 136.956 437.507 137.484 436.688 138.054L436.666 138.031ZM443.764 136.055C443.475 135.645 443.194 135.227 442.928 134.794L441.94 135.181L441.651 134.482L442.525 134.133C442.388 133.905 442.252 133.677 442.122 133.449L442.784 133.076C442.936 133.342 443.088 133.608 443.247 133.836C443.673 133.684 444.106 133.54 444.547 133.403L444.767 134.163C444.395 134.277 444.007 134.399 443.658 134.528C443.893 134.9 444.136 135.288 444.418 135.615L443.764 136.055ZM468.335 134.748C467.599 134.382 466.837 134.072 466.055 133.821L465.553 133.661L465.774 132.901L466.29 133.069C467.105 133.328 467.898 133.651 468.662 134.034L468.335 134.748ZM447.678 133.388L447.518 132.628C448.499 132.407 449.517 132.225 450.558 132.081L450.672 132.841C449.669 133 448.674 133.19 447.701 133.411L447.678 133.388ZM462.65 132.977C461.7 132.81 460.697 132.681 459.671 132.59L459.732 131.83C460.788 131.921 461.814 132.05 462.772 132.225L462.65 132.977ZM453.644 132.537L453.591 131.777C454.495 131.723 455.4 131.693 456.296 131.693H456.669V132.453H456.304C455.445 132.476 454.548 132.499 453.667 132.559L453.644 132.537ZM440.8 130.72C440.39 129.793 440.04 128.828 439.698 127.847L440.458 127.612C440.777 128.569 441.134 129.512 441.53 130.416L440.8 130.72ZM438.877 124.883C438.649 123.903 438.459 122.885 438.315 121.843L439.075 121.737C439.219 122.74 439.402 123.736 439.622 124.701L438.877 124.883ZM438.026 118.803C437.988 118.119 437.965 117.42 437.965 116.721C437.965 116.394 437.965 116.06 437.965 115.733H438.725C438.725 116.06 438.725 116.379 438.725 116.706C438.725 117.39 438.725 118.081 438.778 118.743L438.026 118.803ZM438.93 112.723L438.17 112.647C438.277 111.644 438.421 110.618 438.596 109.607L439.356 109.737C439.151 110.747 439.006 111.72 438.908 112.739L438.93 112.723ZM439.972 106.788L439.212 106.605C439.455 105.625 439.736 104.637 440.048 103.649L440.808 103.885C440.466 104.88 440.184 105.845 439.949 106.803L439.972 106.788ZM441.796 101.035L441.089 100.761C441.461 99.8111 441.849 98.8611 442.312 97.9415L442.996 98.2759C442.54 99.1879 442.138 100.115 441.773 101.08L441.796 101.035ZM444.41 95.6159L443.749 95.2283C444.266 94.3543 444.82 93.4803 445.398 92.6443L446.021 93.0775C445.428 93.9135 444.889 94.7647 444.387 95.6311L444.41 95.6159ZM447.838 90.6683L447.245 90.1895C447.883 89.4295 448.567 88.6239 449.274 87.9095L449.821 88.4339C449.107 89.1483 448.438 89.9083 447.815 90.6835L447.838 90.6683ZM451.972 86.2907L451.463 85.7283C452.223 85.0519 452.983 84.3831 453.796 83.7371L454.267 84.3375C453.454 84.9835 452.679 85.6447 451.949 86.3059L451.972 86.2907ZM456.692 82.5363L456.258 81.9055C457.087 81.3355 457.953 80.7731 458.835 80.2411L459.222 80.8871C458.341 81.4267 457.52 81.9815 456.669 82.5515L456.692 82.5363ZM461.852 79.3975L461.495 78.7287C462.392 78.2499 463.319 77.7939 464.246 77.3683L464.565 78.0599C463.6 78.4931 462.711 78.9491 461.829 79.4127L461.852 79.3975ZM467.347 76.8743L467.066 76.1599C468.023 75.7875 468.988 75.3999 469.946 75.1187L470.189 75.8787C469.224 76.1675 468.266 76.5171 467.324 76.8895L467.347 76.8743Z" fill="#263238"/>
<path d="M473.206 74.9514L473.016 74.1914C473.959 73.9482 474.536 73.8418 474.536 73.8418L474.673 74.6018C474.673 74.6018 474.126 74.7158 473.206 74.9514Z" fill="#263238"/>
<path d="M486.643 70.0419C484.705 64.0379 471.724 66.1963 474.255 74.0471C476.786 81.8979 488.581 76.0535 486.643 70.0419Z" fill="#263238"/>
<path d="M467.195 67.6402C467.293 65.003 470.957 62.9738 476.14 63.9086C481.323 64.8434 486.195 68.3394 486.195 68.3394C486.195 68.3394 481.08 71.4402 475.843 72.0102C470.607 72.5802 467.096 70.2698 467.195 67.6402Z" fill="#EBEBEB"/>
<path d="M486.195 68.3242C483.504 68.3242 480.822 68.2482 478.139 68.1646C475.456 68.081 472.766 67.9442 470.083 67.7314C472.773 67.7314 475.464 67.7998 478.146 67.8834C480.829 67.967 483.52 68.1038 486.195 68.3242Z" fill="#263238"/>
<path d="M472.401 65.292C473.928 66.0227 475.368 66.9226 476.695 67.9748C475.93 67.6161 475.189 67.21 474.475 66.7588C473.756 66.3107 473.063 65.8209 472.401 65.292Z" fill="#263238"/>
<path d="M479.446 68.0732C478.071 69.1875 476.581 70.1506 475 70.946C476.382 69.8304 477.88 68.8672 479.469 68.0732H479.446Z" fill="#263238"/>
<path d="M480.229 66.5913C480.996 66.9596 481.667 67.5007 482.19 68.1721C481.806 67.9911 481.446 67.764 481.118 67.4957C480.788 67.2291 480.49 66.9257 480.229 66.5913Z" fill="#263238"/>
<path d="M472.135 83.2584C473.753 85.3408 477.911 84.8392 481.566 81.0543C485.222 77.2695 487.16 71.5771 487.16 71.5771C487.16 71.5771 481.171 72.0331 476.603 74.6171C472.036 77.2011 470.508 81.1684 472.135 83.2584Z" fill="#EBEBEB"/>
<path d="M487.16 71.5771C484.971 73.0971 482.843 74.7844 480.707 76.4184C478.572 78.0524 476.482 79.7395 474.438 81.4799C476.626 79.9599 478.754 78.2803 480.882 76.6463C483.01 75.0123 485.085 73.3251 487.16 71.5771Z" fill="#263238"/>
<path d="M477.721 82.08C478.127 81.3418 478.49 80.5805 478.807 79.8C479.131 79.0174 479.405 78.2153 479.628 77.3984C479.221 78.1361 478.858 78.8974 478.541 79.6784C478.221 80.4623 477.947 81.2642 477.721 82.08Z" fill="#263238"/>
<path d="M481.84 75.7267C480.062 75.6317 478.278 75.7259 476.52 76.0079C477.406 76.0611 478.294 76.0611 479.18 76.0079C480.071 75.9645 480.959 75.8706 481.84 75.7267Z" fill="#263238"/>
<path d="M483.307 76.4792C483.51 76.1038 483.668 75.7059 483.778 75.2936C483.89 74.8842 483.957 74.4636 483.975 74.0396C483.571 74.7919 483.343 75.6259 483.307 76.4792Z" fill="#263238"/>
<path d="M486.643 70.0418C486.214 70.1812 485.753 70.19 485.319 70.0673C484.884 69.9445 484.496 69.6956 484.204 69.3522C483.911 69.0087 483.727 68.5861 483.674 68.1379C483.622 67.6897 483.704 67.236 483.909 66.8343C484.115 66.4326 484.435 66.1009 484.83 65.8814C485.224 65.6618 485.674 65.5641 486.124 65.6008C486.574 65.6375 487.003 65.8068 487.356 66.0873C487.71 66.3678 487.972 66.7469 488.11 67.1766C488.294 67.7511 488.243 68.3752 487.968 68.9122C487.694 69.4493 487.217 69.8555 486.643 70.0418Z" fill="#455A64"/>
<path d="M488.042 74.3814C487.613 74.5202 487.152 74.5287 486.718 74.4058C486.284 74.283 485.897 74.0342 485.604 73.6911C485.312 73.348 485.128 72.9258 485.075 72.478C485.023 72.0302 485.104 71.5769 485.309 71.1753C485.514 70.7738 485.833 70.442 486.227 70.222C486.621 70.002 487.071 69.9036 487.52 69.9393C487.969 69.9749 488.398 70.1431 488.752 70.4224C489.106 70.7017 489.369 71.0797 489.508 71.5086C489.601 71.7935 489.636 72.0939 489.612 72.3925C489.589 72.6911 489.506 72.9821 489.37 73.2489C489.234 73.5157 489.047 73.7531 488.819 73.9474C488.591 74.1417 488.327 74.2892 488.042 74.3814Z" fill="#455A64"/>
<path d="M238.876 72.4432C238.511 75.934 237.184 79.2549 235.043 82.0354C232.901 84.8159 230.029 86.9465 226.746 88.1896C223.464 89.4327 219.901 89.7392 216.455 89.0751C213.008 88.4109 209.814 86.8022 207.229 84.4284L197.752 85.8192L202.494 77.6264C201.41 74.9606 200.947 72.0827 201.141 69.2113C201.336 66.3399 202.182 63.5506 203.615 61.0551C205.049 58.5597 207.032 56.4237 209.415 54.8096C211.798 53.1955 214.517 52.1455 217.366 51.7396C220.215 51.3337 223.119 51.5824 225.858 52.467C228.597 53.3515 231.098 54.8485 233.171 56.8443C235.245 58.8401 236.836 61.2822 237.825 63.9851C238.813 66.688 239.172 69.5806 238.876 72.4432Z" fill="white"/>
<path d="M238.876 72.4434C238.519 75.9324 237.204 79.2546 235.076 82.0422C234.036 83.452 232.782 84.6906 231.359 85.713C229.968 86.7737 228.432 87.631 226.799 88.259C225.165 88.9025 223.448 89.3119 221.7 89.475C220.825 89.5534 219.947 89.5712 219.07 89.5282C218.19 89.5056 217.314 89.4141 216.448 89.2546C212.955 88.6119 209.71 87.0093 207.077 84.6262L207.298 84.6946L197.836 86.1462L197.144 86.2526L197.494 85.6446L202.206 77.4366V77.7634C201.094 75.0484 200.621 72.114 200.824 69.1872C201.027 66.2604 201.9 63.4194 203.376 60.8838C204.85 58.3562 206.877 56.1946 209.304 54.5606C211.727 52.9483 214.485 51.9056 217.368 51.5108C220.252 51.1159 223.188 51.3791 225.956 52.2806C228.694 53.2122 231.189 54.7442 233.259 56.7646C235.325 58.7799 236.904 61.2392 237.877 63.9558C238.85 66.6724 239.192 69.5751 238.876 72.4434ZM238.876 72.4434C239.183 69.5892 238.83 66.7026 237.844 64.0064C236.858 61.3103 235.266 58.8768 233.191 56.8937C231.115 54.9106 228.612 53.4311 225.873 52.5693C223.135 51.7075 220.235 51.4865 217.398 51.9234C214.589 52.3391 211.914 53.3948 209.578 55.009C207.262 56.6358 205.327 58.7467 203.908 61.1954C202.511 63.6495 201.687 66.388 201.499 69.2058C201.314 72.0426 201.771 74.8846 202.836 77.5202L202.905 77.6874L202.814 77.847L198.041 86.0246L197.706 85.523L207.191 84.193H207.32L207.412 84.2766C209.947 86.6364 213.089 88.2442 216.486 88.9202C217.333 89.0926 218.192 89.1969 219.055 89.2318C219.918 89.2926 220.784 89.2926 221.646 89.2318C223.377 89.0924 225.08 88.7165 226.708 88.1146C228.34 87.5204 229.876 86.6909 231.268 85.6522C232.685 84.638 233.94 83.4159 234.992 82.027C237.148 79.2529 238.492 75.9355 238.876 72.4434Z" fill="#263238"/>
<path d="M210.778 79.3063C210.764 79.0547 210.801 78.8028 210.888 78.5662C210.975 78.3296 211.109 78.1133 211.283 77.9309C211.457 77.7485 211.667 77.6037 211.899 77.5056C212.131 77.4075 212.381 77.3582 212.633 77.3607C213.149 77.3607 213.644 77.5657 214.009 77.9306C214.373 78.2955 214.578 78.7903 214.578 79.3063C214.578 79.8223 214.373 80.3172 214.009 80.6821C213.644 81.0469 213.149 81.2519 212.633 81.2519C212.381 81.2544 212.131 81.2051 211.899 81.107C211.667 81.0089 211.457 80.8642 211.283 80.6818C211.109 80.4993 210.975 80.2831 210.888 80.0465C210.801 79.8099 210.764 79.5579 210.778 79.3063ZM211.538 74.8147L211.098 59.7363H214.138L213.697 74.8147H211.538Z" fill="#0367A6"/>
<path d="M218.006 79.3063C217.991 79.0554 218.029 78.8041 218.115 78.568C218.201 78.3319 218.335 78.116 218.508 77.9337C218.681 77.7514 218.89 77.6065 219.121 77.5079C219.352 77.4094 219.601 77.3593 219.853 77.3607C220.369 77.3607 220.864 77.5657 221.229 77.9306C221.593 78.2955 221.798 78.7903 221.798 79.3063C221.798 79.8223 221.593 80.3172 221.229 80.6821C220.864 81.0469 220.369 81.2519 219.853 81.2519C219.601 81.2534 219.352 81.2033 219.121 81.1048C218.89 81.0062 218.681 80.8613 218.508 80.679C218.335 80.4966 218.201 80.2808 218.115 80.0447C218.029 79.8086 217.991 79.5573 218.006 79.3063ZM218.766 74.8147L218.348 59.7363H221.388L220.947 74.8147H218.766Z" fill="#0367A6"/>
<path d="M225.226 79.3063C225.211 79.0547 225.249 78.8028 225.336 78.5662C225.422 78.3296 225.557 78.1133 225.731 77.9309C225.905 77.7485 226.114 77.6037 226.346 77.5056C226.579 77.4075 226.828 77.3582 227.08 77.3607C227.596 77.3607 228.091 77.5657 228.456 77.9306C228.821 78.2955 229.026 78.7903 229.026 79.3063C229.026 79.8223 228.821 80.3172 228.456 80.6821C228.091 81.0469 227.596 81.2519 227.08 81.2519C226.828 81.2544 226.579 81.2051 226.346 81.107C226.114 81.0089 225.905 80.8642 225.731 80.6818C225.557 80.4993 225.422 80.2831 225.336 80.0465C225.249 79.8099 225.211 79.5579 225.226 79.3063ZM225.986 74.8147L225.545 59.7363H228.585L228.152 74.8147H225.986Z" fill="#0367A6"/>
</svg>
