<svg width="51" height="37" viewBox="0 0 51 37" fill="none" xmlns="http://www.w3.org/2000/svg">
<path d="M22.8575 0.0164108C23.2087 1.32409 22.9578 2.12882 21.8038 2.8581C17.6893 5.47347 14.6285 8.969 13.2989 13.7974C12.8473 15.4571 12.8473 15.4571 14.478 15.9349C19.1193 17.2678 22.3306 21.5177 22.0296 25.9437C21.6783 31.1996 18.1409 35.1981 13.1233 35.9777C5.5717 37.1848 0.754753 31.4511 0.202812 25.5665C-0.549835 17.6953 2.83708 11.5341 8.60737 6.50452C12.5462 3.05928 17.2628 1.2235 22.2805 0.0415573C22.4812 -0.033886 22.6568 0.0164108 22.8575 0.0164108Z" fill="#0367A5"/>
<path d="M50.8464 0.0164185C51.2049 1.24939 50.9744 2.07977 49.7452 2.83465C45.3404 5.5774 42.1905 9.30149 40.8332 14.3592C40.5771 15.2902 40.8332 15.5922 41.7552 15.7935C47.6964 17.0516 50.7439 22.7133 49.7708 27.3432C48.5928 33.1307 43.2917 36.8548 37.4784 36.0244C32.3054 35.2947 28.5665 31.5454 27.7982 26.2612C26.8251 19.5427 29.258 13.9063 33.6883 8.97437C38.0418 4.11795 43.7527 1.47586 50.0781 0.0415802C50.3342 -0.033905 50.5903 0.0164185 50.8464 0.0164185Z" fill="#0367A5"/>
</svg>
